<?xml version="1.0" encoding="UTF-8"?>
<svg width="218px" height="267px" viewBox="0 0 218 267" version="1.1" xmlns="http://www.w3.org/2000/svg" xmlns:xlink="http://www.w3.org/1999/xlink">
    <!-- Generator: Sketch 42 (36781) - http://www.bohemiancoding.com/sketch -->
    <title>Hand</title>
    <desc>Created with Sketch.</desc>
    <defs></defs>
    <g id="Page-1" stroke="none" stroke-width="1" fill="none" fill-rule="evenodd">
        <g id="Hand" fill="#2196F3">
            <path d="M146.161814,191.439509 C136.942394,200.076846 124.388546,208.98348 109.855233,217.197883 C97.3728806,224.250515 85.3565385,227.580468 71.4417004,231.435205 L69.2382737,232.0463 C59.8009228,234.667625 51.6108597,246.463153 47.2160656,254 C33.5734257,239.754047 18.5878842,221.914886 12,213.95079 C16.5954972,210.363624 21.2788557,205.564623 25.163709,200.387573 C29.5541961,194.536418 34.7888421,185.729907 34.7879807,177.00712 C34.7871193,170.466324 34.0842279,165.364366 33.4640296,160.864008 C32.0410191,150.537527 31.3269296,145.353571 41.0537064,133.804898 C52.0424143,120.758695 58.0049319,107.18512 62.7951024,96.2786153 C68.0486989,84.3156401 70.7034922,79.1498099 74.0852957,79.8826068 C75.5281182,80.1950597 76.6281088,80.7465995 77.4498715,81.570025 C83.7526368,87.8855438 76.4506631,110.905208 69.25464,125.230569 C68.1279465,127.468664 68.8291151,130.192701 70.8929972,131.612549 C72.9586021,133.028081 75.7494945,132.694913 77.4240299,130.831417 C77.6049211,130.63117 95.7319393,110.477959 114.411968,91.5288135 C116.927216,88.9765395 119.386475,86.4294443 121.764763,83.9643464 C139.464534,65.6297489 150.748697,54.8984595 158.166097,60.4785919 C158.415037,60.6667542 158.637275,60.8583689 158.825919,61.0465312 C162.457524,64.6846221 152.360351,75.4616574 144.247813,84.1205728 C141.167495,87.4082332 137.980365,90.8089635 135.085244,94.2157357 C115.571394,117.170666 92.7722152,139.043231 92.5439477,139.261603 C90.5610359,141.158761 90.47662,144.302279 92.3535813,146.305603 C94.2193445,148.285622 97.3668509,148.418544 99.3807726,146.555047 C99.5013667,146.443703 111.55561,135.280849 123.138675,123.991978 C128.998687,118.28065 138.184513,114.530352 141.706723,118.060552 C141.893644,118.248714 142.074535,118.46277 142.243366,118.695815 C144.788764,122.223426 141.364752,126.701342 132.946422,136.076655 L131.979946,137.154703 C121.380585,147.398325 107.867153,158.972892 107.731054,159.087688 C105.682677,160.840704 105.389805,163.903087 107.068647,166.013439 C108.744044,168.121201 111.792491,168.519967 113.95371,166.909368 C114.540314,166.471761 128.389687,156.104712 139.163048,144.117569 C144.116021,139.410924 150.224974,139.056178 152.860817,141.697354 C153.051183,141.888106 153.228629,142.097846 153.386263,142.321397 C155.19862,144.865903 151.269836,150.498686 149.497102,152.802379 C145.157437,158.436888 138.610038,164.341557 133.82762,168.652889 L133.475313,168.970521 C124.481576,176.557429 120.605337,179.719073 120.566574,179.749282 C118.430336,181.490215 118.102148,184.635459 119.836119,186.779472 C121.565783,188.927802 124.706398,189.259244 126.850389,187.527806 C127.228538,187.221395 136.130106,180.032389 140.032187,176.521178 C154.231283,164.563382 157.905096,168.179031 159.306572,169.560902 C159.592553,169.846597 160.186909,170.442157 159.942276,172.232287 C159.645097,174.403058 157.710423,180.621906 146.161814,191.439509 Z M166.485815,162.105053 C166.475502,162.094716 166.417064,162.036135 166.406752,162.025798 C163.838916,159.451718 160.926468,158.255132 158.099959,157.793383 C163.489147,150.49671 166.18675,142.93212 161.490223,136.334963 C161.013266,135.663014 160.45123,135.056537 159.872865,134.476766 C157.270655,131.868227 153.92164,130.395971 150.31739,129.993663 C153.552106,124.390645 154.549849,118.660991 150.28903,112.751289 C149.810354,112.089678 149.280974,111.472003 148.720657,110.910322 C145.813365,107.995099 141.940128,106.542657 137.488525,106.623635 C139.223619,104.650863 140.949259,102.656554 142.650837,100.65363 C145.383674,97.4368914 148.478311,94.1322826 151.471541,90.9370808 C157.264639,84.7517077 162.736328,78.9092007 166.111124,73.325997 C172.022817,63.5456988 169.203183,57.4223517 165.797449,54.0083359 C165.278382,53.488868 164.699158,52.9874909 164.075246,52.5179884 C159.260985,48.8946347 153.764373,48.0727899 147.662757,50.0403932 C144.903279,50.9311559 142.02005,52.3913519 139.020805,54.4244272 C131.45394,59.5510505 123.274336,68.0288021 114.615197,77.0027619 C112.260488,79.4424522 109.824998,81.9657054 107.351695,84.475175 C100.389836,91.5409731 93.5078995,98.768728 87.5893311,105.081599 C88.3017594,102.373991 88.8448892,99.8136942 89.2221582,97.401571 C90.8618603,86.8993589 89.322706,79.2158849 84.6107109,74.4924308 C82.4270196,72.303429 79.6348853,70.828588 76.3133714,70.1092584 C72.9514664,69.3795911 70.1438633,69.8129118 67.7075135,71.1085665 C61.6883974,74.3097986 57.9552392,82.8013338 53.8233274,92.2129217 C49.3021153,102.510965 43.6748777,115.327954 33.6390071,127.24815 C21.0713952,142.175747 22.2796872,150.951568 23.8111071,162.062841 C24.3860341,166.237537 25.0374461,170.967883 25.0374461,176.81039 C25.0383055,186.550199 12.6099136,202.306532 2.43568241,208.373022 C1.19129633,209.11475 0.331054294,210.361301 0.0775364117,211.790484 C-0.176840853,213.218806 0.201287513,214.686755 1.11481127,215.811838 C1.33051632,216.080617 20.585844,239.81591 38.4197528,258.684744 C40.6687572,261.065854 42.896277,263.36857 45.0593431,265.536897 C46.2023221,266.682655 47.828274,267.202123 49.4215695,266.928175 C51.0148649,266.655088 52.376127,265.625628 53.0756645,264.161986 C56.8079634,256.349292 65.2556948,243.252324 72.0336458,241.368283 L74.2250715,240.760945 C88.1341797,236.906717 101.270703,233.266134 114.787073,225.624011 C146.26626,207.825987 167.94075,187.220425 169.841704,173.292998 C170.439834,168.909825 169.347559,164.973757 166.485815,162.105053 L166.485815,162.105053 Z" id="Fill-18"></path>
            <path d="M116.72655,25.6671988 C117.593794,27.107729 118.921297,28.6459814 120.413864,30.1371177 C124.109038,33.828749 128.81032,37.2219785 130.014679,38.0718128 C132.296762,39.6842293 135.456568,39.1423945 137.071405,36.8616278 C138.684496,34.5799885 138.143014,31.4240844 135.858312,29.8107953 C132.377984,27.3529071 126.832166,22.8227843 125.401607,20.450403 C123.957074,18.0562087 120.847923,17.2849012 118.452304,18.7254314 C116.056685,20.1668341 115.283764,23.2747496 116.72655,25.6671988" id="Fill-19"></path>
            <path d="M151.492399,22.7654317 C151.646529,23.8620744 152.136944,24.8204633 152.839185,25.5492826 C153.869468,26.6152022 155.357196,27.1827255 156.910039,26.947182 C159.521188,26.5546095 161.32954,24.0421456 160.949572,21.338516 C160.112158,15.3995771 160.862204,5.44018393 160.869622,5.34033397 C161.078151,2.61622232 159.115668,0.233478037 156.486386,0.0158563352 C153.855456,-0.200911948 151.553391,1.83022394 151.344038,4.55348217 C151.308596,5.00664737 150.50003,15.7187556 151.492399,22.7654317" id="Fill-20"></path>
            <path d="M183.28914,28.6127939 C181.508139,30.5958707 181.587671,33.6477542 183.43382,35.5315477 C183.484585,35.5833477 183.537042,35.6342844 183.591191,35.6843577 C185.587943,37.5526112 188.689677,37.4144778 190.520596,35.3761477 C196.749446,28.4427172 200.290296,21.6154768 200.43836,21.3271235 C201.694791,18.8821633 200.772562,15.8639498 198.37646,14.5758564 C195.98205,13.2903529 193.017382,14.2296597 191.753337,16.6711665 C191.723724,16.7307365 188.615221,22.6842835 183.28914,28.6127939" id="Fill-21"></path>
            <path d="M196.460696,63.5019129 C197.410562,64.475854 198.739858,65.0549304 200.188748,64.9958769 C207.720565,64.6865074 214.541704,61.9841512 214.828213,61.8686885 C217.394744,60.8409823 218.659511,57.8759705 217.655441,55.2494143 C216.65137,52.6219767 213.757893,51.3245637 211.193943,52.3522699 C211.138018,52.3743047 205.572182,54.5469427 199.788668,54.7849193 C197.036294,54.8977378 194.893933,57.2739779 195.004063,60.094441 C195.056546,61.4297539 195.604612,62.6258065 196.460696,63.5019129" id="Fill-22"></path>
            <path d="M181.876773,76.4784915 C179.374708,77.6548686 178.300296,80.6381332 179.477485,83.1403098 C179.820364,83.8684198 181.973505,88.2508995 185.913588,92.1902945 C188.141005,94.4178103 190.941902,96.5045409 194.306779,97.7068293 C196.911622,98.6370482 199.775567,97.2801551 200.707472,94.6760605 C201.636786,92.0711021 200.278226,89.2078935 197.675974,88.2759472 C193.089861,86.6383474 189.51943,80.924886 188.531386,78.8606119 C187.349016,76.3696637 184.372793,75.3021144 181.876773,76.4784915" id="Fill-23"></path>
        </g>
    </g>
</svg>